<svg width="24" height="24" viewBox="0 0 24 24" fill="none" xmlns="http://www.w3.org/2000/svg">
<mask id="mask0" style="mask-type:alpha" maskUnits="userSpaceOnUse" x="5" y="5" width="14" height="14">
<path fill-rule="evenodd" clip-rule="evenodd" d="M18.8372 10.7273H12.1628V13.4318H16.0047C15.6465 15.15 14.1488 16.1364 12.1628 16.1364C9.8186 16.1364 7.93023 14.2909 7.93023 12C7.93023 9.70909 9.8186 7.86364 12.1628 7.86364C13.1721 7.86364 14.0837 8.21364 14.8 8.78636L16.8837 6.75C15.614 5.66818 13.986 5 12.1628 5C8.1907 5 5 8.11818 5 12C5 15.8818 8.1907 19 12.1628 19C15.7442 19 19 16.4545 19 12C19 11.5864 18.9349 11.1409 18.8372 10.7273Z" fill="white"/>
</mask>
<g mask="url(#mask0)">
<path d="M4.34885 16.1364V7.86363L9.88373 12L4.34885 16.1364Z" fill="#FBBC05"/>
</g>
<mask id="mask1" style="mask-type:alpha" maskUnits="userSpaceOnUse" x="5" y="5" width="14" height="14">
<path fill-rule="evenodd" clip-rule="evenodd" d="M18.8372 10.7273H12.1628V13.4318H16.0047C15.6465 15.15 14.1488 16.1364 12.1628 16.1364C9.8186 16.1364 7.93023 14.2909 7.93023 12C7.93023 9.70909 9.8186 7.86364 12.1628 7.86364C13.1721 7.86364 14.0837 8.21364 14.8 8.78636L16.8837 6.75C15.614 5.66818 13.986 5 12.1628 5C8.1907 5 5 8.11818 5 12C5 15.8818 8.1907 19 12.1628 19C15.7442 19 19 16.4545 19 12C19 11.5864 18.9349 11.1409 18.8372 10.7273Z" fill="white"/>
</mask>
<g mask="url(#mask1)">
<path d="M4.34885 7.86363L9.88373 12L12.1628 10.0591L19.9768 8.81818V4.36363H4.34885V7.86363Z" fill="#EA4335"/>
</g>
<mask id="mask2" style="mask-type:alpha" maskUnits="userSpaceOnUse" x="5" y="5" width="14" height="14">
<path fill-rule="evenodd" clip-rule="evenodd" d="M18.8372 10.7273H12.1628V13.4318H16.0047C15.6465 15.15 14.1488 16.1364 12.1628 16.1364C9.8186 16.1364 7.93023 14.2909 7.93023 12C7.93023 9.70909 9.8186 7.86364 12.1628 7.86364C13.1721 7.86364 14.0837 8.21364 14.8 8.78636L16.8837 6.75C15.614 5.66818 13.986 5 12.1628 5C8.1907 5 5 8.11818 5 12C5 15.8818 8.1907 19 12.1628 19C15.7442 19 19 16.4545 19 12C19 11.5864 18.9349 11.1409 18.8372 10.7273Z" fill="white"/>
</mask>
<g mask="url(#mask2)">
<path d="M4.34885 16.1364L14.1163 8.81818L16.6884 9.13636L19.9768 4.36363V19.6364H4.34885V16.1364Z" fill="#34A853"/>
</g>
<mask id="mask3" style="mask-type:alpha" maskUnits="userSpaceOnUse" x="5" y="5" width="14" height="14">
<path fill-rule="evenodd" clip-rule="evenodd" d="M18.8372 10.7273H12.1628V13.4318H16.0047C15.6465 15.15 14.1488 16.1364 12.1628 16.1364C9.8186 16.1364 7.93023 14.2909 7.93023 12C7.93023 9.70909 9.8186 7.86364 12.1628 7.86364C13.1721 7.86364 14.0837 8.21364 14.8 8.78636L16.8837 6.75C15.614 5.66818 13.986 5 12.1628 5C8.1907 5 5 8.11818 5 12C5 15.8818 8.1907 19 12.1628 19C15.7442 19 19 16.4545 19 12C19 11.5864 18.9349 11.1409 18.8372 10.7273Z" fill="white"/>
</mask>
<g mask="url(#mask3)">
<path d="M19.9767 19.6364L9.88372 12L8.58139 11.0455L19.9767 7.86363V19.6364Z" fill="#4285F4"/>
</g>
</svg>
