<svg width="24" height="24" viewBox="0 0 24 24" fill="none" xmlns="http://www.w3.org/2000/svg">
<path fill-rule="evenodd" clip-rule="evenodd" d="M14.7631 11.9239C14.672 10.0799 13.3589 8.971 11.7733 8.971H11.7136C9.88345 8.971 8.8685 10.4711 8.8685 12.1748C8.8685 14.0828 10.0964 15.2877 11.7062 15.2877C13.5015 15.2877 14.6817 13.9173 14.7673 12.2962L14.7631 11.9239ZM11.7224 7.32165C12.9453 7.32165 14.0948 7.88466 14.9391 8.76675V8.77004C14.9391 8.34663 15.2122 8.02755 15.5921 8.02755L15.688 8.02689C16.2818 8.02689 16.4036 8.61269 16.4036 8.79787L16.4067 15.3821C16.3649 15.813 16.8333 16.0354 17.0934 15.7593C18.1078 14.6727 19.321 10.1739 16.4626 7.56711C13.7988 5.1367 10.2243 5.53731 8.32349 6.90307C6.30264 8.35584 5.00951 11.5706 6.26563 14.5901C7.63487 17.8842 11.553 18.8662 13.8818 17.8868C15.061 17.3904 15.6056 19.052 14.381 19.5949C12.5303 20.4169 7.37982 20.3341 4.97397 15.99C3.34841 13.0567 3.43504 7.8954 7.74631 5.22151C11.0443 3.17615 15.3928 3.74266 18.0146 6.59669C20.7556 9.58047 20.5958 15.1673 17.9223 17.3407C16.711 18.3271 14.9119 17.3665 14.9235 15.9282L14.9111 15.4582C14.0675 16.3304 12.9453 16.8395 11.7224 16.8395C9.30648 16.8395 7.18049 14.6234 7.18049 12.1062C7.18049 9.56293 9.30648 7.32165 11.7224 7.32165Z" fill="#FFA930"/>
</svg>
