<svg width="24" height="24" viewBox="0 0 24 24" fill="none" xmlns="http://www.w3.org/2000/svg">
<path fill-rule="evenodd" clip-rule="evenodd" d="M15.5937 14.4375C14.9062 14.875 13.9687 15.1563 12.7812 15.2813L15.8125 18.3125C16.0833 18.5833 16.1562 18.8906 16.0312 19.2344C15.9062 19.5781 15.6719 19.8177 15.3281 19.9531C14.9844 20.0885 14.6771 20.0208 14.4062 19.75L12 17.3437L9.62499 19.7187C9.35416 19.9896 9.04166 20.0625 8.6875 19.9375C8.33333 19.8125 8.09375 19.5781 7.96875 19.2344C7.84375 18.8906 7.92708 18.5833 8.21875 18.3125L11.25 15.2813C10.0208 15.1563 9.07291 14.875 8.40625 14.4375C7.84375 14.0625 7.48958 13.7708 7.34375 13.5625C7.15625 13.2917 7.15625 12.9688 7.34375 12.5938C7.46875 12.3229 7.67708 12.1563 7.96875 12.0938C8.30208 12.0104 8.65625 12.1146 9.03125 12.4063L9.40624 12.6563C9.71874 12.8229 10.0521 12.9688 10.4062 13.0938C10.9271 13.2396 11.4583 13.3125 12 13.3125C12.5417 13.3125 13.0729 13.2396 13.5937 13.0938C13.9479 12.9688 14.2812 12.8229 14.5937 12.6563L14.9687 12.4063C15.3437 12.1146 15.7083 12.0104 16.0625 12.0938C16.3333 12.1563 16.5416 12.3229 16.6875 12.5938C16.8541 12.9688 16.8437 13.2917 16.6562 13.5625C16.5104 13.7708 16.1562 14.0625 15.5937 14.4375ZM7.9375 8.06252C7.9375 7.31252 8.11979 6.63023 8.48437 6.01565C8.84895 5.40107 9.34374 4.91149 9.96874 4.5469C10.5937 4.18232 11.2708 4.00003 12 4.00003C12.7292 4.00003 13.4062 4.18232 14.0312 4.5469C14.6562 4.91149 15.151 5.40107 15.5156 6.01565C15.8802 6.63023 16.0625 7.30731 16.0625 8.0469C16.0625 8.78648 15.8802 9.46356 15.5156 10.0781C15.151 10.6927 14.6562 11.1823 14.0312 11.5469C13.4062 11.9115 12.7292 12.0938 12 12.0938C11.2708 12.0938 10.5937 11.9115 9.96874 11.5469C9.34374 11.1823 8.84895 10.6927 8.48437 10.0781C8.11979 9.46356 7.9375 8.79169 7.9375 8.06252ZM9.99999 8.06252C9.99999 8.60419 10.1979 9.06773 10.5937 9.45314C10.9896 9.83856 11.4583 10.0313 12 10.0313C12.5417 10.0313 13.0104 9.83856 13.4062 9.45314C13.8021 9.06773 14 8.59898 14 8.0469C14 7.49481 13.8021 7.02606 13.4062 6.64065C13.0104 6.25523 12.5417 6.06253 12 6.06253C11.4583 6.06253 10.9896 6.25523 10.5937 6.64065C10.1979 7.02606 9.99999 7.50002 9.99999 8.06252Z" fill="#EC8125"/>
</svg>
