<svg width="24" height="24" viewBox="0 0 24 24" fill="none" xmlns="http://www.w3.org/2000/svg">
<path fill-rule="evenodd" clip-rule="evenodd" d="M18.8437 8.75002C18.8645 8.83336 18.875 8.96877 18.875 9.15627C18.875 10.6563 18.5104 12.1042 17.7812 13.5C17.0312 14.9792 15.9791 16.1563 14.625 17.0313C13.1458 18.0104 11.4479 18.5 9.53124 18.5C7.69791 18.5 6.02083 18.0104 4.5 17.0313C4.72917 17.0521 4.98958 17.0625 5.28125 17.0625C6.80208 17.0625 8.16666 16.5938 9.37499 15.6563C8.64582 15.6563 8.0052 15.4427 7.45312 15.0156C6.90104 14.5886 6.52083 14.0521 6.3125 13.4063C6.52083 13.4271 6.71874 13.4375 6.90624 13.4375C7.19791 13.4375 7.48958 13.4063 7.78124 13.3438C7.03124 13.1771 6.40625 12.7917 5.90625 12.1875C5.40625 11.5833 5.15625 10.8959 5.15625 10.125V10.0625C5.61458 10.3334 6.10416 10.4792 6.62499 10.5C6.1875 10.1875 5.83333 9.79169 5.5625 9.31252C5.29166 8.83336 5.15625 8.30732 5.15625 7.7344C5.15625 7.16149 5.3125 6.61461 5.625 6.09378C6.4375 7.11461 7.43228 7.92711 8.60936 8.53127C9.78645 9.13544 11.0417 9.46877 12.375 9.53127C12.3333 9.28127 12.3125 9.03127 12.3125 8.78127C12.3125 8.19794 12.4583 7.65107 12.75 7.14065C13.0416 6.63024 13.4375 6.2292 13.9375 5.93753C14.4375 5.64586 14.9791 5.50003 15.5625 5.50003C16.0416 5.50003 16.4843 5.59378 16.8906 5.78128C17.2968 5.96878 17.6562 6.21878 17.9687 6.53128C18.7187 6.38544 19.4166 6.12503 20.0625 5.75003C19.8125 6.52086 19.3333 7.12503 18.625 7.56253C19.25 7.47919 19.875 7.30211 20.5 7.03128C20.0416 7.69794 19.4895 8.27086 18.8437 8.75002Z" fill="#2AA3EF"/>
</svg>
