<svg width="24" height="24" viewBox="0 0 24 24" fill="none" xmlns="http://www.w3.org/2000/svg">
<path fill-rule="evenodd" clip-rule="evenodd" d="M20.0312 7.68753C19.9687 8.00003 19.7187 8.52086 19.2812 9.25003C18.9687 9.77086 18.5937 10.375 18.1562 11.0625C17.7812 11.6042 17.5833 11.8854 17.5625 11.9063C17.4375 12.0938 17.375 12.2396 17.375 12.3438C17.375 12.4479 17.4375 12.5729 17.5625 12.7188L17.8437 13.0313C19.3437 14.5729 20.1875 15.6354 20.375 16.2188C20.4375 16.4688 20.4114 16.6615 20.2968 16.7969C20.1823 16.9323 20 17 19.75 17H17.9062C17.677 17 17.4687 16.9271 17.2812 16.7813C17.1562 16.6979 16.9323 16.474 16.6093 16.1094C16.2864 15.7448 16 15.4375 15.75 15.1875C14.9166 14.3958 14.3021 14 13.9062 14C13.7396 14 13.6198 14.0313 13.5469 14.0938C13.4739 14.1563 13.4375 14.2917 13.4375 14.5C13.4166 14.6458 13.4062 14.9688 13.4062 15.4688V16.2813C13.4271 16.5313 13.3646 16.7083 13.2187 16.8125C13.0312 16.9375 12.6562 17 12.0937 17C11.1146 17 10.125 16.7083 9.12499 16.125C8.12499 15.5417 7.24999 14.7083 6.49999 13.625C5.79166 12.6667 5.19791 11.6979 4.71875 10.7188C4.34375 9.96877 4.04167 9.27086 3.8125 8.62503C3.66667 8.10419 3.59375 7.73961 3.59375 7.53128C3.59375 7.17711 3.80208 7.00003 4.21875 7.00003H6.06249C6.29166 7.00003 6.46353 7.05211 6.57812 7.15628C6.6927 7.26045 6.79166 7.44795 6.87499 7.71878C7.16666 8.55211 7.52082 9.36461 7.93749 10.1563C8.31249 10.8854 8.68749 11.4792 9.06249 11.9375C9.43749 12.3959 9.72915 12.625 9.93748 12.625C10.0625 12.625 10.151 12.5781 10.2031 12.4844C10.2552 12.3906 10.2812 12.2084 10.2812 11.9375V9.21878C10.2604 8.88544 10.1875 8.59378 10.0625 8.34378C9.99998 8.19794 9.89582 8.03649 9.74999 7.8594C9.60415 7.68232 9.53124 7.53649 9.53124 7.4219C9.53124 7.30732 9.57811 7.20836 9.67186 7.12503C9.76561 7.0417 9.87499 7.00003 9.99998 7.00003H12.9062C13.0937 7.00003 13.2239 7.05211 13.2969 7.15628C13.3698 7.26045 13.4062 7.43753 13.4062 7.68753V11.3125C13.4062 11.5 13.4375 11.6354 13.5 11.7188C13.5625 11.8021 13.6406 11.8438 13.7344 11.8438C13.8281 11.8438 13.9375 11.8073 14.0625 11.7344C14.1875 11.6615 14.3541 11.5104 14.5625 11.2813C14.9583 10.8438 15.3541 10.3021 15.75 9.65627C16.0208 9.19794 16.2812 8.69794 16.5312 8.15628L16.8437 7.53128C16.9896 7.17711 17.25 7.00003 17.625 7.00003H19.4687C19.9687 7.00003 20.1562 7.2292 20.0312 7.68753Z" fill="#4C77A6"/>
</svg>
